<svg width="416" height="563" viewBox="0 0 416 563" fill="none" xmlns="http://www.w3.org/2000/svg">
<path d="M385.412 262.34L266.604 234.25C259.269 232.516 253.301 224.009 253.275 215.252L252.756 41.5943C252.729 32.8359 258.655 27.1412 265.99 28.8755L384.798 56.9655C392.134 58.7 398.102 67.2067 398.128 75.9651L398.648 249.622C398.674 258.38 392.748 264.074 385.412 262.34ZM253.322 231.11L398.695 265.481L398.081 60.1061L252.708 25.7353L253.322 231.11ZM232.387 0L415.279 43.2416L416 284.225L233.108 240.984L232.387 0ZM233.108 240.984L416 284.225L415.279 43.2416L232.387 0L233.108 240.984ZM252.708 25.7353L398.081 60.1061L398.695 265.48L253.322 231.11L252.708 25.7353Z" fill="#72D6FA" fill-opacity="0.35"/>
<path d="M264.968 102.347L264.561 102.251L264.408 51.2178L264.816 51.3141L264.968 102.347Z" fill="white"/>
<path d="M293.935 109.196L293.527 109.099L293.375 58.0664L293.782 58.1627L293.935 109.196Z" fill="white"/>
<path d="M322.901 116.044L322.493 115.948L322.341 64.915L322.748 65.0114L322.901 116.044Z" fill="white"/>
<path d="M351.867 122.894L351.459 122.798L351.307 71.7646L351.714 71.861L351.867 122.894Z" fill="white"/>
<path d="M380.834 129.743L380.426 129.646L380.273 78.6133L380.681 78.7097L380.834 129.743Z" fill="white"/>
<path d="M269.387 108.185L264.779 107.096L264.773 105.322L269.382 106.412L269.387 108.185Z" fill="white"/>
<path d="M271.535 47.9491L264.597 46.3088L264.593 44.9785L271.531 46.6189L271.535 47.9491Z" fill="white"/>
<path d="M274.446 51.0953L264.605 48.7684L264.601 47.4375L274.442 49.7644L274.446 51.0953Z" fill="white"/>
<path d="M301.396 55.0089L293.252 53.0832L293.248 51.7529L301.392 53.6787L301.396 55.0089Z" fill="white"/>
<path d="M298.467 56.7742L293.259 55.5428L293.255 54.2119L298.463 55.4433L298.467 56.7742Z" fill="white"/>
<path d="M327.78 61.2482L322.733 60.0549L322.729 58.7246L327.776 59.918L327.78 61.2482Z" fill="white"/>
<path d="M328.624 63.9047L322.74 62.5135L322.736 61.1826L328.62 62.5738L328.624 63.9047Z" fill="white"/>
<path d="M359.052 68.6409L351.7 66.9025L351.696 65.5723L359.048 67.3106L359.052 68.6409Z" fill="white"/>
<path d="M357.59 70.754L351.707 69.3631L351.703 68.0322L357.586 69.4231L357.59 70.754Z" fill="white"/>
<path d="M384.854 74.7416L380.462 73.7033L380.458 72.373L384.85 73.4114L384.854 74.7416Z" fill="white"/>
<path d="M383.984 76.9928L380.47 76.162L380.466 74.8311L383.98 75.6619L383.984 76.9928Z" fill="white"/>
<path d="M298.354 115.035L293.746 113.945L293.74 112.172L298.349 113.261L298.354 115.035Z" fill="white"/>
<path d="M327.524 121.931L322.915 120.842L322.91 119.068L327.518 120.158L327.524 121.931Z" fill="white"/>
<path d="M356.49 128.78L351.882 127.69L351.876 125.917L356.485 127.007L356.49 128.78Z" fill="white"/>
<path d="M385.456 135.629L380.848 134.539L380.843 132.766L385.451 133.855L385.456 135.629Z" fill="white"/>
<path d="M370.546 112.158C361.511 110.023 353.644 103.502 345.441 96.7043C335.316 88.3135 324.845 79.636 310.924 78.0427C302.035 77.0257 296.466 80.0294 291.553 82.6801C287.105 85.0806 282.897 87.1218 277.189 86.031C267.963 84.2687 264.748 78.8124 264.693 78.5132L264.684 75.498C264.696 75.5527 266.726 81.3029 277.172 83.7103C282.316 84.8956 286.104 82.8524 290.49 80.4859C295.587 77.736 301.364 74.619 310.72 75.6899C325.199 77.3471 335.925 86.2368 346.3 94.8335C357.155 103.829 367.512 112.306 380.571 110.163L380.579 112.642C376.857 113.254 373.877 112.945 370.546 112.158Z" fill="white"/>
<path d="M316.314 98.7586C309.644 97.1826 304.34 90.5769 299.146 84.1101C295.207 79.2081 291.122 74.1806 286.413 71.0641C272.045 61.5542 264.737 70.989 264.671 71.0716L264.661 67.6739C264.738 67.5753 266.042 65.8551 269.824 64.8119C273.269 63.8628 279.052 63.8226 287.044 69.0253C292.109 72.3215 296.322 77.5668 300.396 82.6392C308.66 92.9282 315.798 101.815 328.123 93.453C337.458 87.1199 346.257 81.0621 354.93 80.1396C363.413 79.2377 372.272 83.4609 380.588 95.3139L380.536 98.3852C362.87 73.1136 347.922 82.9449 329.308 95.5732C324.377 98.9186 320.122 99.6587 316.314 98.7586Z" fill="white"/>
<path d="M286.445 132.422L263.963 127.106L263.957 125.036L286.439 130.352L286.445 132.422Z" fill="#BCC1C8"/>
<path d="M280.8 135.484L263.975 131.507L263.969 129.437L280.794 133.414L280.8 135.484Z" fill="#BCC1C8"/>
<path d="M378.173 168.322L264.005 141.329L263.999 139.326L378.167 166.319L378.173 168.322Z" fill="white"/>
<path d="M383.947 174.357L264.019 146.002L264.013 143.999L383.941 172.354L383.947 174.357Z" fill="white"/>
<path d="M331.557 192.576L347.154 197.313L359.523 179.781L358.68 178.855L346.643 195.918L331.106 191.199L313.368 211.24L294.708 202.006L276.347 218.406L277.062 219.475L295.027 203.43L313.75 212.694L331.557 192.576Z" fill="white"/>
<path d="M316.262 211.907C316.591 213.768 315.647 215.304 314.155 215.335C312.662 215.369 311.185 213.887 310.857 212.027C310.528 210.167 311.471 208.632 312.963 208.598C314.457 208.566 315.933 210.047 316.262 211.907Z" fill="white"/>
<path d="M334.03 192.035C334.359 193.896 333.415 195.431 331.922 195.463C330.43 195.496 328.953 194.016 328.624 192.155C328.295 190.294 329.238 188.759 330.731 188.726C332.224 188.694 333.701 190.175 334.03 192.035Z" fill="white"/>
<path d="M349.452 196.42C349.781 198.28 348.837 199.814 347.344 199.847C345.851 199.88 344.374 198.399 344.045 196.538C343.717 194.678 344.66 193.144 346.153 193.11C347.646 193.077 349.123 194.559 349.452 196.42Z" fill="white"/>
<path d="M297.557 202.962C297.886 204.822 296.942 206.357 295.449 206.389C293.956 206.423 292.48 204.942 292.15 203.081C291.822 201.221 292.766 199.686 294.258 199.653C295.751 199.62 297.228 201.101 297.557 202.962Z" fill="white"/>
<path d="M303.461 219.935L292.13 217.256L292.122 214.651L303.453 217.33L303.461 219.935Z" fill="white"/>
<path d="M311.262 195.063L299.931 192.384L299.923 189.779L311.254 192.458L311.262 195.063Z" fill="white"/>
<path d="M334.822 219.251L323.491 216.572L323.483 213.967L334.815 216.646L334.822 219.251Z" fill="white"/>
<path d="M344.876 185.065L333.545 182.386L333.538 179.781L344.869 182.46L344.876 185.065Z" fill="white"/>
<path d="M185.502 396.212C185.502 396.212 162.765 390.625 140.678 401.8C118.591 412.974 9.45293 467.73 9.45293 467.73C9.45293 467.73 -14.5833 477.229 14.0003 490.638C42.584 504.048 139.379 554.334 139.379 554.334C139.379 554.334 161.466 569.978 188.75 557.128C216.035 544.277 329.07 486.168 329.07 486.168C329.07 486.168 346.61 476.111 320.625 463.26C294.64 450.409 185.502 396.212 185.502 396.212Z" fill="#72D6FA"/>
<path d="M172.145 473.244C170.771 473.402 169.638 474.251 169.268 475.4C167.686 480.32 164.362 493.248 172.423 494.979C180.741 496.768 216.772 482.169 228.582 477.24C230.302 476.52 231.018 474.737 230.18 473.257C230.082 473.084 229.964 472.919 229.829 472.766L226.081 468.467C225.323 467.599 224.078 467.152 222.828 467.298L172.145 473.244Z" fill="#201C1F"/>
<path d="M112.753 443.659C112.753 443.659 105.263 460.839 115.25 465.134C127.735 462.985 175.174 450.102 175.174 450.102L170.18 441.516L137.722 435.074L112.753 443.659Z" fill="#201C1F"/>
<path d="M152.192 436.776C152.192 436.776 154.539 412.034 157.185 393.828C159.682 376.648 164.675 333.698 164.675 333.698L167.172 273.569C167.172 273.569 134.713 237.063 130.148 243.919C125.583 250.776 112.243 350.88 109.745 368.059C107.49 383.571 104.751 436.777 107.248 449.662C130.283 442.406 152.192 436.776 152.192 436.776Z" fill="#69A0AC"/>
<path d="M214.617 471.137C214.617 471.137 208.719 471.318 154.693 475.432C154.693 456.105 167.178 391.681 169.674 378.796C172.172 365.912 167.177 327.257 164.681 318.667C162.185 310.077 146.82 260.444 146.82 260.444L209.623 247.806C209.623 247.806 222.107 365.916 219.606 389.538C217.106 413.159 214.617 471.137 214.617 471.137Z" fill="#88C5CC"/>
<path d="M206.61 77.934C206.61 77.934 213.53 111.363 203.585 125.302C197.558 131.052 183.097 127.06 183.097 127.06L180.562 141.932L144.954 128.765L154.536 116.952L157.862 82.6445L206.61 77.934Z" fill="#B18A67"/>
<path d="M212.276 74.3095C212.276 74.3095 189.446 45.3855 163.953 61.7052C138.461 78.0245 134.776 114.458 134.776 114.458L184.844 131.623C184.844 131.623 181.479 92.1346 212.276 74.3095Z" fill="#201C1F"/>
<path d="M272.491 116.995L316.53 96.4579C323.864 88.9955 331.088 83.21 338.198 79.1017C340.37 78.3323 344.163 77.8844 340.6 83.3045C337.037 88.7251 333.571 94.5694 335.372 96.259C337.173 97.9486 341.685 95.6358 343.833 98.4372C345.265 100.304 337.558 103.188 320.712 107.089L288.681 132.183L272.491 116.995Z" fill="#997658"/>
<path d="M262.278 161.878C246.046 168.883 233.867 176.181 226.378 191.213C219.424 205.17 223.403 241.429 218.408 250.015C213.413 258.601 150.994 286.522 118.536 252.162C118.536 224.245 121.034 192.034 116.04 179.149C111.046 166.264 106.057 136.201 121.034 129.754C136.01 123.307 146.001 127.606 146.001 127.606C146.001 127.606 170.97 136.192 175.964 136.192C180.957 136.192 203.429 138.339 203.429 138.339C203.429 138.339 250.476 129.3 295.079 102.284C299.202 107.922 313.628 144.243 313.628 144.243C295.112 149.849 275.918 156.657 262.278 161.878Z" fill="#C5CFD5"/>
</svg>
