<svg width="701" height="435" viewBox="0 0 701 435" fill="none" xmlns="http://www.w3.org/2000/svg">
<path d="M142.021 252.036H22.4409V37.2178H142.021V252.036Z" fill="#EBEBEB"/>
<path d="M136.011 245.636H27.2188V43.4482H136.011V245.636Z" fill="#F9F9F9"/>
<path d="M136.011 45.8293L27.2188 184.217V43.4473H136.011V45.8293Z" fill="#F5F5F5"/>
<path d="M138.374 103.764H27.2197V101.61H138.374V103.764Z" fill="#EBEBEB"/>
<path d="M138.374 151.914H27.2197V149.76H138.374V151.914Z" fill="#EBEBEB"/>
<path d="M138.374 200.062H27.2197V197.91H138.374V200.062Z" fill="#EBEBEB"/>
<path d="M84.3627 251.37H78.8647V102.688H84.3627V251.37Z" fill="#EBEBEB"/>
<path d="M50.658 102.688H48.168V43.4482H50.658V102.688Z" fill="#EBEBEB"/>
<path d="M72.134 102.688H69.644V43.4482H72.134V102.688Z" fill="#EBEBEB"/>
<path d="M93.6101 102.688H91.1201V43.4482H93.6101V102.688Z" fill="#EBEBEB"/>
<path d="M115.087 102.688H112.597V43.4482H115.087V102.688Z" fill="#EBEBEB"/>
<path d="M22.4408 253.366H17.3828V33.5742H22.4408V253.366Z" fill="#F5F5F5"/>
<path d="M147.079 253.972L142.021 252.035V33.5742H147.079V253.972Z" fill="#DFDFDF"/>
<path d="M147.079 37.2174H17.3828V31.3574H147.079V37.2174Z" fill="#DFDFDF"/>
<path d="M150.503 260.156H13.7949V254.696H150.503V260.156Z" fill="#DFDFDF"/>
<path d="M142.022 252.035L150.503 254.695H13.7949L22.4409 252.035H142.022Z" fill="#EBEBEB"/>
<path d="M656.405 171.131C656.405 171.131 647.953 170.523 648.731 189.483C649.509 208.444 651.443 218.543 651.443 218.543C651.443 218.543 651.195 222.747 647.939 221.922C644.683 221.096 638.558 217.005 635.533 220.063C632.395 223.235 633.51 228.1 637.672 233.831C641.834 239.561 650.49 252.451 651.268 253.619C652.032 254.766 652.34 256.917 650.031 256.71C647.722 256.504 632.144 251.223 630.081 258.765C628.018 266.308 642.235 280.367 643.76 281.934C645.285 283.501 645.367 284.49 644.749 285.437C644.13 286.385 639.06 284.117 634.568 282.797C630.076 281.476 624.635 280.733 623.809 285.184C622.984 289.636 629.246 302.663 652.695 316.353L663.976 321.986L674.653 315.175C696.616 299.208 701.543 285.62 700.276 281.273C699.009 276.927 693.671 278.211 689.333 279.974C684.995 281.737 680.177 284.501 679.466 283.62C678.757 282.738 678.74 281.746 680.099 280.035C681.46 278.323 694.2 262.913 691.393 255.614C688.586 248.316 673.613 255.129 671.338 255.564C669.061 256.002 669.151 253.831 669.797 252.613C670.455 251.373 677.777 237.681 681.344 231.564C684.912 225.446 685.536 220.494 682.096 217.651C678.781 214.911 673.096 219.594 669.939 220.741C666.783 221.888 666.115 217.73 666.115 217.73C666.115 217.73 667.028 207.488 665.906 188.545C664.784 169.602 656.232 171.131 656.232 171.131" fill="#EBEBEB"/>
<path d="M657.073 188.112C657.073 188.112 657.095 188.246 657.118 188.508C657.139 188.788 657.169 189.175 657.207 189.672C657.278 190.715 657.381 192.22 657.511 194.149C657.77 198.038 658.102 203.667 658.486 210.625C659.26 224.54 660.164 243.772 661.092 265.014C662.019 286.263 662.876 305.496 663.571 319.414C663.925 326.359 664.211 331.985 664.41 335.896C664.506 337.826 664.581 339.332 664.633 340.377C664.652 340.874 664.667 341.262 664.678 341.543C664.686 341.806 664.68 341.942 664.68 341.942C664.68 341.942 664.657 341.808 664.634 341.546C664.613 341.265 664.583 340.879 664.545 340.382C664.473 339.338 664.372 337.834 664.241 335.905C663.982 332.017 663.65 326.388 663.266 319.43C662.493 305.515 661.588 286.282 660.66 265.032C659.732 243.79 658.877 224.559 658.181 210.641C657.828 203.696 657.543 198.07 657.344 194.159C657.248 192.228 657.173 190.722 657.121 189.677C657.101 189.179 657.086 188.792 657.074 188.51C657.066 188.247 657.073 188.112 657.073 188.112Z" fill="#DFDFDF"/>
<path d="M643.871 226.132C643.892 226.111 644.141 226.32 644.573 226.716C645.007 227.111 645.616 227.7 646.362 228.436C647.851 229.91 649.853 232.001 652.019 234.35C654.139 236.669 656.055 238.766 657.537 240.387C658.195 241.102 658.756 241.709 659.216 242.208C659.614 242.637 659.824 242.885 659.804 242.906C659.783 242.928 659.533 242.721 659.098 242.327C658.664 241.932 658.054 241.342 657.315 240.598C655.841 239.108 653.867 236.991 651.702 234.644C649.567 232.341 647.637 230.259 646.143 228.649C645.48 227.938 644.917 227.332 644.454 226.835C644.058 226.403 643.85 226.153 643.871 226.132Z" fill="#DFDFDF"/>
<path d="M660.922 242.533C660.837 242.45 664.963 238.129 670.136 232.885C675.311 227.638 679.573 223.455 679.658 223.538C679.743 223.622 675.618 227.941 670.443 233.188C665.271 238.432 661.007 242.617 660.922 242.533Z" fill="#DFDFDF"/>
<path d="M660.877 275.225C660.863 275.198 661.143 275.021 661.662 274.724C662.265 274.386 663.001 273.973 663.868 273.486C665.73 272.44 668.297 270.986 671.07 269.281C673.85 267.581 676.314 265.957 678.088 264.769C678.915 264.217 679.617 263.748 680.191 263.365C680.691 263.037 680.976 262.867 680.993 262.891C681.011 262.914 680.76 263.131 680.29 263.501C679.819 263.871 679.129 264.394 678.261 265.02C676.528 266.275 674.084 267.944 671.297 269.649C668.514 271.36 665.915 272.776 664.013 273.755C663.06 274.241 662.283 274.624 661.739 274.873C661.195 275.124 660.89 275.251 660.877 275.225Z" fill="#DFDFDF"/>
<path d="M642.187 263.784C642.203 263.758 642.48 263.889 642.967 264.15C643.456 264.41 644.154 264.799 645.012 265.286C646.73 266.263 649.087 267.636 651.677 269.176C654.268 270.717 656.601 272.133 658.278 273.175C659.117 273.697 659.791 274.125 660.253 274.43C660.714 274.734 660.962 274.915 660.947 274.94C660.932 274.966 660.655 274.834 660.167 274.574C659.679 274.314 658.981 273.926 658.122 273.437C656.405 272.462 654.047 271.088 651.457 269.548C648.867 268.007 646.534 266.592 644.857 265.549C644.018 265.027 643.343 264.598 642.881 264.295C642.42 263.99 642.172 263.809 642.187 263.784Z" fill="#DFDFDF"/>
<path d="M638.48 292.637C638.495 292.611 638.847 292.783 639.472 293.116C640.167 293.5 641.047 293.986 642.098 294.565C644.305 295.804 647.339 297.542 650.678 299.485C654.017 301.427 657.028 303.206 659.196 304.514C660.218 305.14 661.076 305.666 661.752 306.081C662.351 306.459 662.674 306.681 662.66 306.706C662.645 306.733 662.292 306.56 661.667 306.227C660.973 305.843 660.092 305.358 659.042 304.779C656.834 303.539 653.799 301.8 650.46 299.858C647.123 297.915 644.113 296.136 641.944 294.829C640.921 294.202 640.064 293.677 639.387 293.262C638.789 292.884 638.464 292.662 638.48 292.637Z" fill="#DFDFDF"/>
<path d="M662.177 306.207C662.162 306.182 662.512 305.948 663.156 305.55C663.874 305.113 664.795 304.554 665.899 303.882C668.213 302.472 671.404 300.513 674.864 298.254C678.331 296 681.415 293.88 683.639 292.33C684.7 291.593 685.585 290.978 686.276 290.498C686.901 290.068 687.255 289.842 687.273 289.866C687.29 289.891 686.97 290.162 686.375 290.633C685.78 291.104 684.908 291.771 683.818 292.578C681.637 294.192 678.573 296.357 675.101 298.616C671.632 300.879 668.41 302.8 666.054 304.145C664.874 304.814 663.913 305.346 663.24 305.697C662.569 306.051 662.192 306.233 662.177 306.207Z" fill="#DFDFDF"/>
<path d="M679.131 325.678H647.921L658.108 402.784H668.944L679.131 325.678Z" fill="#DFDFDF"/>
<path d="M649.542 335.154C649.529 335.162 649.576 335.263 649.708 335.428C649.842 335.592 650.086 335.805 650.461 335.967C651.201 336.29 652.501 336.315 653.758 335.562C655.018 334.867 656.115 333.502 657.805 332.898C659.48 332.258 661.555 332.374 663.543 333.012C665.556 333.635 667.304 334.653 668.888 335.601C670.475 336.546 671.929 337.388 673.233 337.933C674.528 338.499 675.657 338.759 676.438 338.86C676.83 338.912 677.136 338.927 677.344 338.922C677.552 338.921 677.66 338.913 677.661 338.895C677.679 338.793 675.895 338.809 673.38 337.604C672.12 337.028 670.704 336.167 669.13 335.2C667.563 334.232 665.772 333.169 663.694 332.526C661.642 331.866 659.434 331.747 657.638 332.462C656.739 332.803 655.986 333.339 655.357 333.87C654.72 334.397 654.149 334.893 653.571 335.255C652.43 335.992 651.23 336.023 650.531 335.782C649.813 335.532 649.582 335.111 649.542 335.154Z" fill="#F5F5F5"/>
<path d="M650.68 349.356C650.722 349.382 650.927 349.039 651.415 348.529C651.911 348.034 652.726 347.386 653.908 346.948C655.078 346.499 656.583 346.231 658.247 346.293C659.919 346.351 661.742 346.719 663.679 347.034C665.613 347.359 667.528 347.504 669.24 347.265C670.95 347.045 672.436 346.552 673.615 346.015C674.796 345.476 675.67 344.886 676.245 344.452C676.822 344.015 677.096 343.721 677.078 343.702C677.02 343.617 675.815 344.696 673.47 345.685C672.3 346.168 670.845 346.611 669.183 346.798C667.521 347.004 665.682 346.853 663.759 346.532C661.838 346.219 659.987 345.859 658.262 345.826C656.534 345.787 654.978 346.101 653.773 346.614C652.557 347.115 651.735 347.842 651.268 348.396C651.043 348.684 650.88 348.915 650.796 349.087C650.704 349.255 650.664 349.347 650.68 349.356Z" fill="#F5F5F5"/>
<path d="M675.595 356.958C675.607 356.936 675.319 356.74 674.736 356.512C674.155 356.282 673.268 356.047 672.149 355.957C671.032 355.868 669.692 355.94 668.239 356.181C666.782 356.417 665.223 356.818 663.584 357.166C661.948 357.512 660.367 357.744 658.937 357.691C657.506 357.642 656.235 357.329 655.247 356.894C653.239 356.012 652.524 354.729 652.449 354.81C652.429 354.821 652.571 355.143 652.977 355.625C653.378 356.105 654.08 356.719 655.095 357.22C656.108 357.718 657.427 358.082 658.916 358.16C660.408 358.241 662.032 358.014 663.689 357.665C665.346 357.312 666.895 356.899 668.319 356.644C669.741 356.382 671.04 356.276 672.128 356.316C674.319 356.39 675.564 357.052 675.595 356.958Z" fill="#F5F5F5"/>
<path d="M653.438 367.653C653.453 367.735 654.552 366.959 656.467 367.347C657.407 367.517 658.457 367.993 659.638 368.529C660.814 369.078 662.232 369.547 663.752 369.664C666.819 369.958 669.546 368.967 671.219 367.933C672.076 367.425 672.672 366.879 673.077 366.505C673.457 366.1 673.652 365.868 673.626 365.843C673.558 365.768 672.738 366.691 671.039 367.622C669.368 368.547 666.735 369.439 663.798 369.156C660.843 368.988 658.576 367.225 656.527 366.992C655.529 366.842 654.694 366.986 654.173 367.196C653.645 367.402 653.422 367.634 653.438 367.653Z" fill="#F5F5F5"/>
<path d="M655.177 382.452C655.176 382.511 656.224 382.504 657.779 381.935C659.348 381.411 661.288 380.208 663.556 379.307C664.694 378.874 665.836 378.606 666.873 378.612C667.911 378.617 668.838 378.871 669.54 379.221C670.974 379.934 671.389 380.949 671.468 380.885C671.49 380.875 671.427 380.62 671.172 380.226C670.92 379.835 670.442 379.324 669.709 378.903C668.98 378.486 667.997 378.176 666.881 378.143C665.761 378.111 664.555 378.383 663.376 378.831C661.027 379.767 659.145 381.006 657.647 381.599C656.166 382.238 655.165 382.37 655.177 382.452Z" fill="#F5F5F5"/>
<path d="M656.707 389.339C656.69 389.402 657.437 389.672 658.683 389.981C659.927 390.29 661.673 390.62 663.622 390.814C665.573 391.003 667.35 391.02 668.63 390.958C669.911 390.898 670.697 390.779 670.693 390.714C670.686 390.56 667.53 390.694 663.672 390.306C659.813 389.937 656.744 389.19 656.707 389.339Z" fill="#F5F5F5"/>
<path d="M661.42 109.411H565.057V46.0547H661.42V109.411Z" fill="#DFDFDF"/>
<path d="M658.017 106.578H568.407V48.6455H658.017V106.578Z" fill="#F9F9F9"/>
<path d="M627.828 85.7037H598.596V69.7617H627.828V85.7037Z" fill="#DFDFDF"/>
<path d="M645.794 179.291C642.367 150.956 621.605 125.44 594.557 116.327C563.741 105.944 530.148 116.092 499.45 126.819C468.753 137.546 435.99 149.04 404.441 141.16C361.217 130.364 335.147 87.6631 300.346 59.8451C263.124 30.0921 212.98 17.1241 166 25.1011C139.262 29.6411 112.748 41.3991 95.831 62.5981C81.138 81.0091 64.724 110.161 64.01 133.706C62.713 176.497 74.073 216.659 115.658 264.528C240.3 394.148 386.029 374.221 517.464 348.52C550.043 342.148 584.034 317.571 611.486 289.065C643.797 255.515 649.779 212.246 645.794 179.291Z" fill="#F5F5F5"/>
<path d="M688.496 403.806C688.496 403.95 534.359 404.065 344.265 404.065C154.104 404.065 0 403.95 0 403.806C0 403.661 154.104 403.545 344.265 403.545C534.359 403.545 688.496 403.661 688.496 403.806Z" fill="#253138"/>
<path d="M449.482 212.756H259.344V0H465.702V196.536C465.702 205.494 458.439 212.756 449.482 212.756Z" fill="#EBEBEB"/>
<path d="M502.111 402.64H102.581C94.5362 402.64 88.0142 396.118 88.0142 388.073V133.735C88.0142 125.69 94.5362 119.168 102.581 119.168H502.111C510.156 119.168 516.678 125.69 516.678 133.735V388.073C516.678 396.118 510.156 402.64 502.111 402.64Z" fill="#253138"/>
<path d="M517.315 406.478H88.484C78.655 406.478 70.687 398.509 70.687 388.68V381.674H535.113V388.68C535.113 398.509 527.145 406.478 517.315 406.478Z" fill="#253138"/>
<path d="M504.573 369.821H100.12V130.431H504.573V369.821Z" fill="#455A63"/>
<path d="M260.688 381.674C260.68 381.669 260.831 381.665 261.134 381.66C261.464 381.657 261.915 381.653 262.494 381.647C263.726 381.64 265.5 381.63 267.775 381.617C272.417 381.598 279.1 381.57 287.373 381.537C304.053 381.501 327.142 381.452 352.897 381.397L353.38 381.396L353.136 381.814C352.312 383.227 351.426 384.743 350.536 386.27C349.602 387.869 348.673 389.459 347.786 390.981L347.705 391.118H347.545C311.908 391.051 281.473 390.994 266.451 390.966H266.381L266.345 390.907C264.497 387.903 263.074 385.588 262.098 384.001C261.637 383.246 261.283 382.665 261.03 382.252C260.794 381.862 260.688 381.674 260.688 381.674C260.688 381.674 260.833 381.884 261.091 382.28C261.359 382.695 261.735 383.278 262.225 384.034C263.22 385.583 264.672 387.841 266.557 390.775L266.451 390.716C281.473 390.688 311.908 390.63 347.545 390.564L347.306 390.701C348.195 389.179 349.123 387.59 350.056 385.989C350.948 384.464 351.833 382.946 352.658 381.534L352.897 381.951C327.247 381.896 304.252 381.847 287.641 381.811C279.328 381.778 272.615 381.75 267.951 381.731C265.641 381.718 263.839 381.708 262.587 381.701C261.989 381.695 261.523 381.691 261.183 381.688C260.863 381.683 260.688 381.674 260.688 381.674Z" fill="#455A63"/>
<path d="M516.679 381.674C516.679 381.818 420.711 381.935 302.356 381.935C183.961 381.935 88.0132 381.818 88.0132 381.674C88.0132 381.53 183.961 381.413 302.356 381.413C420.711 381.413 516.679 381.53 516.679 381.674Z" fill="#455A63"/>
<path d="M407.279 82.6221C413.892 82.6221 419.254 87.9841 419.254 94.5971V119.168H383.446V96.5001C383.446 88.8361 389.66 82.6221 397.324 82.6221H407.279Z" fill="#253138"/>
<path d="M407.279 82.6222C407.279 82.7662 373.495 82.8532 331.83 82.8162C290.151 82.7802 256.375 82.6342 256.375 82.4902C256.375 82.3462 290.152 82.2592 331.831 82.2952C373.496 82.3322 407.279 82.4782 407.279 82.6222Z" fill="#253138"/>
<path d="M406.964 82.5932L392.032 82.4902L370.342 82.6232H211C197.47 82.6232 186.502 93.5912 186.502 107.121V365.867V370.392H392.859V96.0542C393.464 82.6232 406.964 82.5932 406.964 82.5932Z" fill="#F9F9F9"/>
<path d="M406.964 82.592L282.538 82.864L220.324 82.911L212.548 82.917C211.244 82.891 209.968 82.968 208.69 83.036C207.424 83.215 206.146 83.355 204.917 83.724C199.935 84.959 195.467 87.947 192.219 91.89C190.599 93.876 189.341 96.139 188.42 98.521C188.218 99.128 187.941 99.71 187.801 100.336L187.324 102.195C187.13 103.458 186.889 104.718 186.879 106.001C186.768 111.154 186.854 116.362 186.832 121.539L186.999 370.392L186.502 369.896L392.859 370.03L392.495 370.392L392.595 222.387L392.714 148.389L392.786 111.39L392.805 102.14L392.814 97.515C392.817 96.744 392.79 95.973 392.91 95.206C393.006 94.439 393.037 93.661 393.274 92.921C393.956 89.923 395.674 87.098 398.271 85.386C399.532 84.501 400.943 83.825 402.42 83.383C403.894 82.933 405.422 82.64 406.964 82.592ZM406.964 82.592C405.423 82.646 403.896 82.945 402.426 83.4C400.951 83.848 399.546 84.528 398.291 85.416C395.708 87.134 394.012 89.951 393.344 92.937C393.111 93.675 393.084 94.449 392.991 95.212C392.874 95.973 392.904 96.746 392.904 97.517L392.913 102.142L392.932 111.393L393.004 148.394L393.122 222.394L393.223 370.392V370.756H392.859L186.502 370.889H186.004V370.392L186.171 121.539C186.2 116.348 186.12 111.183 186.239 105.972C186.252 104.656 186.499 103.362 186.702 102.066L187.194 100.157C187.339 99.516 187.623 98.919 187.831 98.297C188.779 95.853 190.074 93.533 191.738 91.499C195.074 87.459 199.659 84.403 204.767 83.144C206.027 82.768 207.337 82.625 208.634 82.445C209.945 82.375 211.257 82.301 212.548 82.328L220.324 82.334L282.537 82.381L406.964 82.592Z" fill="#253138"/>
<path d="M217.586 129.99H253.596L253.653 142.053H251.931C251.365 137.737 249.75 134.818 247.083 133.295C245.583 132.455 243.345 131.996 240.365 131.917V163.426C240.365 165.628 240.75 167.089 241.52 167.809C242.288 168.531 243.89 168.891 246.323 168.891V170.41H225.004V168.891C227.34 168.891 228.893 168.526 229.662 167.796C230.431 167.064 230.815 165.608 230.815 163.426V131.917C227.896 131.996 225.656 132.455 224.099 133.295C221.236 134.857 219.62 137.776 219.251 142.053H217.527L217.586 129.99Z" fill="#E8505B"/>
<path d="M267.119 236.38L271.805 323.139L186.974 333.764L186.909 235.646L267.119 236.38Z" fill="#DFDFDF"/>
<path d="M272.396 231.103L271.805 323.138L156.686 322.398L157.276 230.364L272.396 231.103Z" fill="#F5F5F5"/>
<path d="M160.691 316.632L267.723 317.32L268.24 236.872L161.208 236.185L160.691 316.632Z" fill="#E8505B"/>
<path d="M160.691 316.63L198.396 266.865L221.352 298.3L237.166 281.676L267.723 317.318L160.691 316.63Z" fill="#383838"/>
<path d="M231.422 260.952C231.392 265.607 227.595 269.355 222.941 269.326C218.286 269.296 214.537 265.499 214.567 260.844C214.597 256.189 218.394 252.441 223.048 252.471C227.703 252.501 231.452 256.298 231.422 260.952Z" fill="#383838"/>
<path d="M282.893 344.854C282.893 345.836 282.096 346.634 281.112 346.634C280.129 346.634 279.333 345.836 279.333 344.854C279.333 343.871 280.129 343.074 281.112 343.074C282.096 343.074 282.893 343.871 282.893 344.854Z" fill="#253138"/>
<path d="M293.456 344.854C293.456 345.836 292.659 346.634 291.676 346.634C290.693 346.634 289.896 345.836 289.896 344.854C289.896 343.871 290.693 343.074 291.676 343.074C292.659 343.074 293.456 343.871 293.456 344.854Z" fill="#253138"/>
<path d="M304.019 344.854C304.019 345.836 303.222 346.634 302.24 346.634C301.256 346.634 300.459 345.836 300.459 344.854C300.459 343.871 301.256 343.074 302.24 343.074C303.222 343.074 304.019 343.871 304.019 344.854Z" fill="#253138"/>
<path d="M648.287 334.725L647.931 390.163L578.587 389.719L578.944 334.281L648.287 334.725Z" fill="#F5F5F5"/>
<path d="M581.001 386.242L645.473 386.658L645.783 338.198L581.312 337.784L581.001 386.242Z" fill="#E8505B"/>
<path d="M581 386.242L603.712 356.266L617.54 375.201L627.065 365.187L645.472 386.657L581 386.242Z" fill="black"/>
<path d="M623.605 352.705C623.587 355.509 621.3 357.767 618.497 357.749C615.693 357.73 613.435 355.443 613.453 352.64C613.471 349.836 615.758 347.578 618.562 347.596C621.366 347.614 623.624 349.901 623.605 352.705Z" fill="black"/>
<path d="M638.118 328.936L637.762 384.374L568.418 383.928L568.775 328.492L638.118 328.936Z" fill="#F5F5F5"/>
<path d="M570.832 380.453L635.304 380.868L635.614 332.411L571.143 331.996L570.832 380.453Z" fill="#E8505B"/>
<path d="M570.831 380.454L593.543 350.478L607.371 369.413L616.896 359.399L635.303 380.869L570.831 380.454Z" fill="black"/>
<path d="M613.437 346.916C613.419 349.72 611.132 351.978 608.329 351.96C605.525 351.941 603.267 349.654 603.285 346.851C603.302 344.047 605.59 341.789 608.394 341.807C611.198 341.825 613.456 344.112 613.437 346.916Z" fill="black"/>
<path d="M629.062 324.152L628.705 379.59L559.362 379.146L559.717 323.708L629.062 324.152Z" fill="#F5F5F5"/>
<path d="M561.776 375.671L626.247 376.085L626.558 327.627L562.087 327.213L561.776 375.671Z" fill="#E8505B"/>
<path d="M561.776 375.671L584.487 345.694L598.315 364.629L607.839 354.615L626.246 376.085L561.776 375.671Z" fill="black"/>
<path d="M604.381 342.132C604.362 344.936 602.075 347.194 599.272 347.176C596.468 347.157 594.21 344.87 594.228 342.067C594.246 339.263 596.533 337.005 599.337 337.024C602.141 337.041 604.399 339.328 604.381 342.132Z" fill="black"/>
<path d="M618.893 330.107L618.536 385.545L549.193 385.099L549.548 329.663L618.893 330.107Z" fill="#F5F5F5"/>
<path d="M551.606 381.625L616.078 382.039L616.388 333.581L551.917 333.167L551.606 381.625Z" fill="#455A63"/>
<path d="M551.606 381.624L574.318 351.647L588.146 370.583L597.671 360.569L616.078 382.038L551.606 381.624Z" fill="black"/>
<path d="M594.212 348.087C594.193 350.891 591.906 353.149 589.103 353.13C586.299 353.112 584.041 350.825 584.059 348.022C584.077 345.218 586.364 342.96 589.168 342.978C591.972 342.996 594.23 345.283 594.212 348.087Z" fill="black"/>
<path d="M658.927 403.804H618.893V350.276H658.927V403.804Z" fill="#253138"/>
<path d="M542.218 403.804H622.288V350.276H542.218V403.804ZM590.766 362.944H573.743C571.707 362.944 570.058 361.295 570.058 359.26C570.058 357.225 571.707 355.576 573.743 355.576H590.766C592.8 355.576 594.45 357.225 594.45 359.26C594.45 361.295 592.8 362.944 590.766 362.944Z" fill="#E8505B"/>
<path d="M490.303 398.209L415.846 393.65C415.376 392.585 415.064 391.964 415.064 391.964L394.884 392.366L388.318 391.964C388.318 391.964 388.216 392.164 388.057 392.502L320.317 393.853C306.812 393.853 292.613 402.092 292.613 412.62C292.442 422.641 297.295 433.518 309.396 433.271L401.691 432.961L493.986 433.271C506.087 433.518 509.285 426.22 509.304 417.563C510.718 401.44 500.62 398.344 490.303 398.209Z" fill="#455A63"/>
<path d="M317.867 433.278C317.867 433.278 318.016 433.26 318.31 433.252C318.626 433.246 319.06 433.238 319.616 433.227C320.788 433.216 322.475 433.2 324.642 433.179C329.037 433.16 335.368 433.133 343.214 433.099C358.959 433.079 380.781 433.049 405.186 433.017L404.927 433.293C404.8 431.269 404.666 429.104 404.53 426.922C404.251 422.457 403.978 418.066 403.717 413.888L403.948 414.128C381.279 411.605 361.248 409.377 346.858 407.776C339.693 406.956 333.933 406.297 329.94 405.84C327.975 405.604 326.445 405.421 325.382 405.294C324.88 405.228 324.491 405.178 324.203 405.141C323.938 405.104 323.803 405.08 323.803 405.072C323.804 405.064 323.941 405.071 324.208 405.091C324.496 405.118 324.888 405.153 325.392 405.198C326.458 405.304 327.992 405.459 329.961 405.655C333.958 406.075 339.722 406.68 346.894 407.434C361.289 408.992 381.327 411.161 404.004 413.615L404.218 413.638L404.233 413.856C404.494 418.034 404.769 422.425 405.048 426.89C405.185 429.073 405.32 431.238 405.446 433.261L405.463 433.537H405.186C380.781 433.505 358.959 433.475 343.214 433.455C335.368 433.421 329.037 433.394 324.642 433.375C322.475 433.355 320.788 433.339 319.616 433.328C319.059 433.317 318.626 433.308 318.31 433.302C318.016 433.294 317.867 433.278 317.867 433.278Z" fill="#253138"/>
<path d="M336.896 406.8C336.839 406.869 335.913 406.124 334.287 405.133C332.665 404.139 330.296 402.961 327.508 402.155C324.717 401.357 322.084 401.095 320.182 401.075C318.277 401.052 317.097 401.192 317.085 401.103C317.081 401.067 317.371 401.002 317.903 400.914C318.435 400.819 319.213 400.742 320.179 400.707C322.107 400.632 324.804 400.838 327.652 401.653C330.497 402.476 332.892 403.734 334.485 404.821C335.284 405.364 335.904 405.841 336.304 406.205C336.708 406.563 336.919 406.773 336.896 406.8Z" fill="#253138"/>
<path d="M484.523 402.838C484.555 402.978 469.87 406.529 451.725 410.769C433.575 415.01 418.839 418.333 418.807 418.193C418.774 418.054 433.457 414.503 451.607 410.262C469.752 406.022 484.49 402.697 484.523 402.838Z" fill="#253138"/>
<path d="M472.105 401.405C472.154 401.566 469.268 402.149 466.351 404.16C463.409 406.135 461.808 408.606 461.675 408.501C461.624 408.468 461.95 407.809 462.676 406.874C463.399 405.938 464.559 404.754 466.058 403.729C467.561 402.711 469.088 402.067 470.223 401.738C471.361 401.407 472.094 401.344 472.105 401.405Z" fill="#253138"/>
<path d="M444.39 316.872L467.975 357.926C470.887 362.995 471.065 369.187 468.451 374.417C465.415 380.485 459.138 384.243 452.356 384.052L416.143 383.029L415.188 369.861L447.083 363.754L425.579 326.536L444.39 316.872Z" fill="#FFBD9D"/>
<path d="M356.493 387.126L389.794 395.946L390.516 385.961L359.829 368.137L382.242 326.535L363.431 316.872L339.846 357.926C334.137 368.529 339.471 381.712 350.947 385.362L356.493 387.126Z" fill="#FFBD9D"/>
<path d="M434.376 343.231L457.137 331.245C457.137 331.245 453.349 323.228 447.386 314.984C440.334 305.235 429.403 298.418 416.99 295.825C416.99 295.824 416.989 295.824 416.988 295.824L390.809 296.133C387.075 296.535 384.022 297.247 381.472 298.282L381.49 298.18C367.283 301.314 351.517 332.302 351.517 332.302L372.229 343.206L372.687 346.463C373.289 350.752 375.163 354.782 378.084 358.073L372.052 397.742L439.273 399.132L430.715 370.723L434.376 343.231Z" fill="#E8505B"/>
<path d="M378.695 358.287C378.677 358.31 378.304 358.06 377.694 357.529C377.08 357.003 376.253 356.157 375.407 354.973C373.719 352.625 372.213 348.648 372.603 344.158C372.919 341.946 373.548 339.939 374.139 338.128C374.742 336.319 375.353 334.717 375.885 333.38C376.42 332.044 376.88 330.975 377.213 330.242C377.547 329.51 377.753 329.113 377.785 329.128C377.818 329.141 377.676 329.563 377.401 330.318C377.088 331.173 376.695 332.241 376.23 333.512C375.743 334.861 375.17 336.471 374.595 338.276C374.032 340.08 373.424 342.087 373.12 344.222C372.917 346.342 373.201 348.449 373.686 350.242C374.168 352.056 374.946 353.575 375.712 354.766C377.298 357.137 378.78 358.202 378.695 358.287Z" fill="#253138"/>
<path d="M368.618 407.321L364.823 363.075H446.705L441.279 407.873L368.618 407.321Z" fill="#253138"/>
<path d="M410.978 386.671C410.978 389.55 408.643 391.885 405.764 391.885C402.884 391.885 400.55 389.55 400.55 386.671C400.55 383.791 402.884 381.457 405.764 381.457C408.643 381.457 410.978 383.791 410.978 386.671Z" fill="#F9F9F9"/>
<path d="M404.331 415.965L418.233 417.905V433.017L405.448 432.687L404.331 415.965Z" fill="#FFBD9D"/>
<path d="M418.234 417.906H424.484C425.701 417.906 426.896 418.226 427.949 418.835L431.245 420.738C432.325 421.361 435.817 423.102 437.005 423.484C440.805 424.705 447.2 426.349 448.546 427.387C452.39 430.353 451.222 433.859 449.11 434.225C447.255 434.547 418.234 433.016 418.234 433.016V417.906Z" fill="#E8505B"/>
<path d="M428.501 431.768C428.368 431.799 427.89 430.056 427.827 427.841C427.757 425.625 428.13 423.857 428.265 423.879C428.414 423.899 428.278 425.661 428.349 427.826C428.408 429.99 428.649 431.74 428.501 431.768Z" fill="#253138"/>
<path d="M431.468 431.685C431.323 431.684 431.219 430.068 431.235 428.077C431.251 426.085 431.38 424.472 431.524 424.473C431.668 424.474 431.772 426.089 431.756 428.081C431.739 430.073 431.612 431.686 431.468 431.685Z" fill="#253138"/>
<path d="M434.97 432.283C434.826 432.295 434.58 430.639 434.42 428.587C434.26 426.532 434.246 424.859 434.39 424.847C434.533 424.837 434.78 426.491 434.94 428.545C435.1 430.598 435.114 432.272 434.97 432.283Z" fill="#253138"/>
<path d="M425.797 427.745C425.788 427.772 425.316 427.678 424.515 427.343C423.719 427.007 422.583 426.426 421.392 425.413C421.096 425.159 420.796 424.881 420.499 424.575C420.206 424.267 419.891 423.917 419.702 423.446C419.513 422.979 419.51 422.37 419.878 421.894C420.062 421.658 420.36 421.503 420.654 421.469C420.95 421.431 421.235 421.482 421.497 421.562C423.524 422.252 425.264 424.246 425.582 426.698C425.888 429.176 424.558 431.482 422.805 432.636C422.367 432.921 421.904 433.182 421.372 433.278C421.111 433.324 420.829 433.33 420.556 433.239C420.28 433.147 420.049 432.938 419.926 432.683C419.684 432.138 419.9 431.619 420.11 431.243C420.333 430.848 420.639 430.549 420.913 430.278C422.042 429.185 423.185 428.589 423.985 428.265C424.795 427.944 425.273 427.873 425.279 427.9C425.292 427.941 424.835 428.081 424.068 428.452C423.308 428.824 422.227 429.454 421.172 430.54C420.909 430.815 420.642 431.097 420.46 431.44C420.276 431.774 420.158 432.192 420.314 432.493C420.464 432.813 420.863 432.921 421.288 432.828C421.709 432.748 422.132 432.511 422.537 432.237C424.138 431.157 425.349 429.01 425.066 426.762C424.787 424.525 423.162 422.658 421.352 422.021C420.911 421.868 420.461 421.89 420.232 422.183C419.993 422.475 419.963 422.932 420.107 423.293C420.416 424.041 421.107 424.618 421.636 425.136C423.925 427.157 425.855 427.643 425.797 427.745Z" fill="#253138"/>
<path d="M449.11 434.224C449.067 434.178 449.523 433.977 449.87 433.274C450.223 432.581 450.155 431.345 449.461 430.122C448.78 428.895 447.366 427.83 445.599 427.21C443.833 426.575 441.724 426.268 439.597 425.605C435.328 424.331 431.718 422.464 429.271 420.9C428.044 420.118 427.097 419.417 426.457 418.917C425.822 418.41 425.488 418.109 425.509 418.081C425.532 418.052 425.908 418.298 426.576 418.753C427.25 419.201 428.222 419.85 429.463 420.585C431.94 422.057 435.529 423.848 439.747 425.106C441.84 425.761 443.928 426.075 445.766 426.761C447.596 427.43 449.09 428.594 449.784 429.945C450.483 431.268 450.501 432.625 450.05 433.367C449.841 433.738 449.585 433.953 449.407 434.078C449.222 434.194 449.118 434.238 449.11 434.224Z" fill="#253138"/>
<path d="M439.644 306.686C439.651 306.686 439.651 306.758 439.643 306.899C439.631 307.064 439.616 307.269 439.597 307.522C439.544 308.106 439.47 308.912 439.376 309.939C439.161 312.086 438.853 315.159 438.465 319.017L438.442 319.25L438.232 319.14C434.882 317.376 430.789 315.222 426.161 312.786L426.447 312.706C424.457 316.063 422.243 319.799 419.89 323.768L419.75 324.005L419.531 323.837C416.08 321.191 412.355 318.334 408.489 315.37L408.806 315.369C407.271 316.572 405.644 317.847 403.997 319.138C401.77 320.881 399.581 322.596 397.44 324.272L397.2 324.46L397.054 324.192C394.877 320.165 392.785 316.292 390.808 312.637L391.121 312.743C386.307 314.888 381.859 316.87 377.875 318.645L377.632 318.753L377.587 318.493C376.817 313.952 376.147 310.001 375.588 306.711L375.792 306.826C372.564 308.057 370 309.035 368.208 309.718C367.352 310.036 366.68 310.285 366.191 310.466C365.98 310.54 365.808 310.599 365.668 310.648C365.55 310.687 365.489 310.704 365.486 310.697C365.483 310.691 365.54 310.661 365.653 310.609C365.79 310.55 365.956 310.478 366.161 310.389C366.643 310.19 367.305 309.916 368.149 309.568C369.93 308.854 372.475 307.832 375.682 306.545L375.853 306.476L375.886 306.66C376.475 309.945 377.181 313.888 377.994 318.421L377.706 318.269C381.681 316.474 386.12 314.469 390.922 312.3L391.126 312.207L391.235 312.406C393.219 316.057 395.322 319.925 397.507 323.947L397.122 323.867C399.261 322.189 401.45 320.473 403.675 318.729C405.324 317.438 406.952 316.163 408.487 314.96L408.645 314.836L408.804 314.959C412.665 317.931 416.383 320.795 419.83 323.45L419.47 323.518C421.84 319.559 424.072 315.833 426.077 312.485L426.183 312.308L426.363 312.405C430.971 314.879 435.046 317.069 438.381 318.86L438.149 318.983C438.598 315.13 438.957 312.064 439.207 309.921C439.335 308.896 439.437 308.094 439.51 307.512C439.546 307.261 439.576 307.058 439.599 306.894C439.622 306.755 439.636 306.685 439.644 306.686Z" fill="#F5F5F5"/>
<path d="M449.361 317.818C449.369 317.821 449.35 317.92 449.305 318.111C449.253 318.327 449.183 318.607 449.095 318.961C448.893 319.735 448.606 320.83 448.24 322.232C447.465 325.108 446.353 329.241 444.965 334.399L444.911 334.596L444.725 334.507C440.715 332.582 435.933 330.288 430.62 327.737L430.896 327.665C427.294 332.803 423.287 338.516 419.014 344.61L418.84 344.859L418.627 344.642C414.999 340.965 411.158 337.073 407.207 333.069C406.403 332.254 405.603 331.442 404.81 330.637L405.133 330.675C399.779 334.033 394.616 337.27 389.745 340.325L389.525 340.463L389.398 340.237C386.425 334.988 383.641 330.071 381.101 325.586L381.362 325.683C375.277 327.778 369.929 329.619 365.539 331.13L365.388 331.182L365.337 331.033C363.839 326.686 362.65 323.241 361.826 320.85C361.435 319.689 361.132 318.786 360.916 318.142C360.823 317.853 360.75 317.623 360.692 317.443C360.644 317.285 360.623 317.204 360.631 317.201C360.637 317.199 360.673 317.275 360.734 317.428C360.801 317.604 360.889 317.83 360.998 318.114C361.233 318.75 361.563 319.644 361.986 320.794C362.843 323.172 364.078 326.602 365.635 330.927L365.434 330.831C369.814 329.289 375.149 327.41 381.218 325.272L381.389 325.213L381.479 325.371C384.036 329.847 386.838 334.755 389.829 339.993L389.482 339.905C394.348 336.844 399.507 333.599 404.857 330.234L405.034 330.124L405.181 330.272C405.974 331.077 406.774 331.887 407.578 332.704C411.525 336.711 415.363 340.607 418.987 344.287L418.6 344.319C422.892 338.238 426.916 332.538 430.535 327.411L430.643 327.257L430.812 327.339C436.109 329.923 440.875 332.25 444.874 334.201L444.635 334.308C446.088 329.168 447.252 325.049 448.061 322.182C448.465 320.791 448.781 319.704 449.004 318.935C449.11 318.587 449.194 318.31 449.258 318.098C449.319 317.911 449.353 317.816 449.361 317.818Z" fill="#F5F5F5"/>
<path d="M439.274 248.056C435.277 248.501 431.114 247.188 428.095 244.529C431.739 246.368 436.592 243.844 437.874 239.969C439.155 236.095 438.104 228.886 434.923 226.329C431.897 223.898 427.701 222.966 423.951 223.97C420.201 224.974 416.226 230.675 415 234.359L415.071 234.471C414.495 234.242 413.912 234.027 413.327 233.829C409.173 232.435 404.735 231.76 400.383 232.264C396.031 232.768 391.769 234.497 388.552 237.473L413.981 278.344C418.599 277.937 422.691 274.823 425.111 270.868C427.531 266.912 428.46 262.208 428.688 257.577C428.745 256.415 428.742 255.241 428.694 254.068C431.419 254.505 434.147 254.944 436.873 255.382C435.413 253.418 433.55 251.754 431.435 250.522C434.196 251.575 437.613 250.499 439.274 248.056Z" fill="#253138"/>
<path d="M407.133 311.489C414.03 311.341 419.566 305.75 419.646 298.851L420.236 248.004C420.278 245.903 418.704 244.12 416.615 243.898L395.138 238.47C388.26 237.743 383.686 246.212 383.251 253.115C382.768 260.784 382.481 270.166 383.389 275.888C385.216 287.394 394.035 288.859 394.035 288.859C394.037 288.829 394.042 293.311 394.069 298.764C394.103 305.91 399.989 311.643 407.133 311.489Z" fill="#FFBD9D"/>
<path d="M385.287 257.994C385.47 258.187 386.588 257.359 388.176 257.364C389.763 257.346 390.928 258.162 391.099 257.968C391.184 257.882 390.998 257.534 390.491 257.165C389.991 256.797 389.14 256.439 388.15 256.443C387.161 256.449 386.329 256.813 385.85 257.185C385.362 257.56 385.197 257.908 385.287 257.994Z" fill="#253138"/>
<path d="M400.895 258.29C401.079 258.482 402.198 257.655 403.785 257.659C405.371 257.641 406.537 258.458 406.708 258.264C406.793 258.177 406.608 257.83 406.098 257.461C405.599 257.093 404.749 256.734 403.759 256.739C402.77 256.744 401.938 257.108 401.459 257.481C400.972 257.855 400.806 258.204 400.895 258.29Z" fill="#253138"/>
<path d="M395.133 270.068C395.141 269.977 394.153 269.807 392.553 269.602C392.148 269.56 391.764 269.48 391.695 269.204C391.6 268.91 391.77 268.473 391.966 268.002C392.348 267.02 392.746 265.992 393.165 264.914C394.83 260.518 396.036 256.903 395.859 256.838C395.681 256.772 394.187 260.282 392.522 264.678C392.121 265.762 391.738 266.796 391.374 267.784C391.221 268.245 390.956 268.768 391.163 269.376C391.273 269.678 391.569 269.898 391.829 269.968C392.089 270.047 392.318 270.052 392.518 270.064C394.128 270.151 395.127 270.158 395.133 270.068Z" fill="#253138"/>
<path d="M394.035 288.859C394.035 288.859 401.776 289.358 409.445 284.748C409.445 284.748 405.706 292.652 394.19 291.576L394.035 288.859Z" fill="#EB996D"/>
<path d="M395.804 273.893C396.375 273.137 397.374 272.723 398.368 272.831C399.057 272.904 399.753 273.237 400.172 273.797C400.59 274.359 400.679 275.157 400.299 275.691C399.87 276.294 398.975 276.433 398.217 276.218C397.459 276.002 396.806 275.503 396.187 275.006C396.015 274.869 395.84 274.724 395.733 274.536C395.626 274.347 395.603 274.101 395.736 273.945" fill="#EB996D"/>
<path d="M399.806 271.166C399.547 271.15 399.543 272.874 398.068 274.098C396.595 275.325 394.759 275.132 394.745 275.372C394.721 275.48 395.155 275.707 395.93 275.728C396.691 275.754 397.8 275.51 398.703 274.762C399.603 274.012 399.992 273.011 400.05 272.303C400.116 271.583 399.923 271.156 399.806 271.166Z" fill="#253138"/>
<path d="M400.181 255.511C400.337 255.943 401.922 255.739 403.784 255.962C405.653 256.15 407.156 256.696 407.403 256.308C407.513 256.122 407.251 255.717 406.644 255.298C406.042 254.881 405.081 254.485 403.963 254.36C402.844 254.238 401.821 254.415 401.142 254.692C400.458 254.967 400.114 255.306 400.181 255.511Z" fill="#253138"/>
<path d="M385.509 255.064C385.788 255.425 386.882 255.051 388.197 255.034C389.512 254.97 390.627 255.276 390.883 254.899C390.995 254.716 390.82 254.355 390.332 254.013C389.853 253.673 389.051 253.395 388.147 253.422C387.243 253.451 386.459 253.777 386.002 254.146C385.537 254.517 385.386 254.888 385.509 255.064Z" fill="#253138"/>
<path d="M418.962 262.303C419.833 261.699 421.053 261.923 421.971 262.454C424.085 263.677 425.136 266.472 424.351 268.784C423.566 271.097 421.03 272.677 418.608 272.361" fill="#FFBD9D"/>
<path d="M419.766 268.929C419.799 268.847 420.212 269.027 420.767 268.772C421.315 268.555 421.812 267.745 421.754 266.805C421.723 265.851 421.107 265.167 420.528 264.959C419.953 264.724 419.528 264.839 419.503 264.75C419.463 264.694 419.895 264.388 420.655 264.558C421.02 264.643 421.447 264.862 421.779 265.259C422.109 265.651 422.324 266.196 422.351 266.774C422.435 267.934 421.705 268.988 420.912 269.168C420.128 269.374 419.704 268.975 419.766 268.929Z" fill="#EB996D"/>
<path d="M422.91 271.256C422.925 271.238 423.108 271.368 423.437 271.628C423.822 271.942 424.289 272.322 424.847 272.778C426.12 273.86 427.809 275.295 429.812 276.996L429.979 277.139L429.838 277.308C427.989 279.527 425.93 282.308 423.614 285.212C423.09 285.867 422.566 286.509 422.057 287.108L421.632 287.61L421.602 286.953C421.393 282.268 421.232 278.12 421.14 275.144C421.106 273.727 421.078 272.552 421.056 271.635C421.047 270.811 421.057 270.359 421.091 270.357C421.124 270.356 421.177 270.805 421.244 271.626C421.306 272.541 421.388 273.714 421.485 275.127C421.669 278.1 421.892 282.244 422.119 286.929L421.664 286.774C422.158 286.17 422.679 285.533 423.208 284.887C425.515 281.992 427.6 279.226 429.502 277.023L429.527 277.334C427.573 275.575 425.924 274.092 424.681 272.975C424.154 272.482 423.715 272.07 423.35 271.731C423.049 271.438 422.895 271.274 422.91 271.256Z" fill="#455A63"/>
<path d="M399.642 233.438C396.827 233.555 393.988 233.675 391.252 234.355C388.518 235.035 385.859 236.322 383.998 238.439C382.138 240.556 381.19 243.585 381.995 246.286C382.798 248.987 385.572 251.104 388.365 250.73C390.486 250.446 392.52 248.876 394.567 249.5C396.5 250.088 397.566 252.449 399.554 252.816C401.517 253.179 403.264 251.417 405.252 251.245C407.447 251.054 409.351 252.855 410.328 254.829C411.304 256.802 411.674 259.033 412.655 261.004C413.282 262.264 414.256 263.473 415.619 263.825C416.87 264.148 418.231 263.665 419.205 262.816C420.18 261.967 420.819 260.797 421.307 259.6C423.378 254.515 422.93 248.47 420.13 243.747C417.33 239.022 412.244 235.727 406.788 235.104" fill="#253138"/>
<path d="M427.678 245.661C427.588 245.687 427.321 244.733 426.615 243.325C425.914 241.917 424.69 240.089 422.912 238.475C421.127 236.87 419.185 235.837 417.713 235.282C416.24 234.722 415.265 234.552 415.282 234.46C415.287 234.425 415.534 234.44 415.981 234.499C416.428 234.548 417.067 234.693 417.835 234.935C419.374 235.412 421.417 236.43 423.262 238.09C425.098 239.756 426.317 241.685 426.948 243.168C427.266 243.908 427.475 244.529 427.57 244.97C427.673 245.407 427.713 245.652 427.678 245.661Z" fill="#E8505B"/>
<path d="M436.48 228.806C436.435 228.898 435.471 228.265 433.709 227.947C431.971 227.615 429.398 227.748 426.96 228.962C424.521 230.185 422.802 232.065 421.745 233.5C420.677 234.95 420.179 235.964 420.1 235.923C420.07 235.909 420.161 235.64 420.374 235.175C420.587 234.71 420.936 234.055 421.443 233.289C422.444 231.772 424.177 229.776 426.728 228.496C429.286 227.221 431.996 227.146 433.783 227.586C434.684 227.799 435.378 228.094 435.826 228.348C436.275 228.6 436.496 228.781 436.48 228.806Z" fill="#455A63"/>
<path d="M425.417 242.323C425.476 242.322 425.569 243.227 425.435 244.689C425.304 246.148 424.884 248.159 423.997 250.224C423.104 252.288 421.93 253.973 420.96 255.07C419.989 256.172 419.266 256.725 419.227 256.682C419.091 256.571 421.796 254.086 423.519 250.018C425.292 245.975 425.242 242.301 425.417 242.323Z" fill="#455A63"/>
<path d="M425.75 242.57C425.784 242.559 425.881 242.793 426.03 243.229C426.187 243.662 426.348 244.312 426.481 245.126C426.755 246.75 426.786 249.08 426.171 251.539C425.545 253.996 424.409 256.031 423.396 257.331C422.893 257.983 422.444 258.479 422.101 258.786C421.763 259.098 421.565 259.257 421.54 259.232C421.475 259.167 422.187 258.447 423.099 257.115C424.014 255.789 425.058 253.795 425.666 251.411C426.263 249.026 426.291 246.774 426.116 245.174C425.946 243.568 425.661 242.595 425.75 242.57Z" fill="#455A63"/>
<path d="M364.542 132.71C364.542 133.142 344.678 133.491 320.18 133.491C295.674 133.491 275.814 133.142 275.814 132.71C275.814 132.279 295.674 131.929 320.18 131.929C326.956 131.929 333.377 131.956 339.122 132.004" fill="#E8505B"/>
<path d="M401.036 260.287C401.036 260.287 403.613 263.478 406.545 260.287C403.598 259.327 401.036 260.287 401.036 260.287Z" fill="white"/>
<path d="M401.036 260.287C401.036 260.287 403.613 263.477 406.545 260.287C403.615 259.455 401.036 260.287 401.036 260.287Z" stroke="#0B0622" stroke-width="0.24" stroke-linecap="round" stroke-linejoin="round"/>
<path d="M405.048 260.287C405.048 260.981 404.485 261.544 403.79 261.544C403.096 261.544 402.533 260.981 402.533 260.287C402.533 259.592 403.096 259.029 403.79 259.029C404.485 259.029 405.048 259.592 405.048 260.287Z" fill="#961269"/>
<path d="M404.582 260.287C404.582 260.725 404.228 261.079 403.79 261.079C403.353 261.079 402.998 260.725 402.998 260.287C402.998 259.85 403.353 259.495 403.79 259.495C404.228 259.495 404.582 259.85 404.582 260.287Z" fill="#110239"/>
<g opacity="0.74">
<path opacity="0.74" d="M403.839 259.548C403.839 259.749 403.676 259.912 403.475 259.912C403.274 259.912 403.111 259.749 403.111 259.548C403.111 259.347 403.274 259.184 403.475 259.184C403.676 259.184 403.839 259.347 403.839 259.548Z" fill="white"/>
</g>
<g opacity="0.74">
<path opacity="0.74" d="M404.7 260.267C404.7 260.397 404.595 260.503 404.465 260.503C404.335 260.503 404.23 260.397 404.23 260.267C404.23 260.137 404.335 260.032 404.465 260.032C404.595 260.032 404.7 260.137 404.7 260.267Z" fill="white"/>
</g>
<path d="M401.036 260.287C401.036 260.287 403.613 263.477 406.545 260.287C403.615 259.455 401.036 260.287 401.036 260.287Z" stroke="#110239" stroke-width="0.24" stroke-linecap="round" stroke-linejoin="round"/>
<path d="M385.786 260.037C385.786 260.037 388.363 263.228 391.295 260.037C388.348 259.077 385.786 260.037 385.786 260.037Z" fill="white"/>
<path d="M385.786 260.037C385.786 260.037 388.363 263.227 391.295 260.037C388.365 259.205 385.786 260.037 385.786 260.037Z" stroke="#0B0622" stroke-width="0.24" stroke-linecap="round" stroke-linejoin="round"/>
<path d="M389.798 260.037C389.798 260.731 389.235 261.294 388.54 261.294C387.846 261.294 387.283 260.731 387.283 260.037C387.283 259.342 387.846 258.779 388.54 258.779C389.235 258.779 389.798 259.342 389.798 260.037Z" fill="#961269"/>
<path d="M389.332 260.037C389.332 260.475 388.978 260.829 388.54 260.829C388.103 260.829 387.748 260.475 387.748 260.037C387.748 259.6 388.103 259.245 388.54 259.245C388.978 259.245 389.332 259.6 389.332 260.037Z" fill="#110239"/>
<g opacity="0.74">
<path opacity="0.74" d="M388.589 259.298C388.589 259.499 388.426 259.662 388.225 259.662C388.024 259.662 387.861 259.499 387.861 259.298C387.861 259.097 388.024 258.934 388.225 258.934C388.426 258.934 388.589 259.097 388.589 259.298Z" fill="white"/>
</g>
<g opacity="0.74">
<path opacity="0.74" d="M389.45 260.017C389.45 260.147 389.345 260.253 389.215 260.253C389.085 260.253 388.98 260.147 388.98 260.017C388.98 259.887 389.085 259.782 389.215 259.782C389.345 259.782 389.45 259.887 389.45 260.017Z" fill="white"/>
</g>
<path d="M385.786 260.037C385.786 260.037 388.363 263.227 391.295 260.037C388.365 259.205 385.786 260.037 385.786 260.037Z" stroke="#110239" stroke-width="0.24" stroke-linecap="round" stroke-linejoin="round"/>
</svg>
