<svg width="500" height="500" viewBox="0 0 500 500" fill="none" xmlns="http://www.w3.org/2000/svg">
<path d="M490.062 262.131H8.70947V244.857H490.062V262.131Z" fill="#8AA6AC"/>
<path d="M8.71001 262.132H137.533V244.858H8.71001V262.132ZM0 0H500V500H0V0ZM0 500H500V0H0V500Z" fill="#A5C5CC"/>
<path d="M139.596 262.132H128.384L134.256 478.582H139.596H144.936L150.808 262.132H139.596Z" fill="#8AA6AC"/>
<path d="M134.254 478.582H139.594V266.783L128.563 268.799L134.254 478.582Z" fill="#A5C5CC"/>
<path d="M33.3761 262.132H22.1631L28.0361 478.582H33.3761H38.7141L44.5871 262.132H33.3761Z" fill="#8AA6AC"/>
<path d="M28.0362 478.582H33.3762V266.783L22.3452 268.799L28.0362 478.582Z" fill="#A5C5CC"/>
<path d="M465.398 262.132H454.186L460.058 478.582H465.398H470.738L476.609 262.132H465.398Z" fill="#8AA6AC"/>
<path d="M460.059 478.582H465.398V266.783L454.368 268.799L460.059 478.582Z" fill="#A5C5CC"/>
<path d="M359.178 262.132H347.966L353.837 478.582H359.178H364.518L370.389 262.132H359.178Z" fill="#8AA6AC"/>
<path d="M353.837 478.582H359.177V266.783L348.146 268.799L353.837 478.582Z" fill="#A5C5CC"/>
<path d="M237.194 152.405H122.669C118.558 152.405 115.9 155.768 116.762 159.88L132.015 232.631C132.877 236.741 136.945 240.105 141.056 240.105H255.581C259.692 240.105 262.351 236.741 261.488 232.631L246.236 159.88C245.374 155.768 241.305 152.405 237.194 152.405Z" fill="#728F96"/>
<path d="M142.116 235.952C139.427 235.952 136.57 233.57 136 230.854L120.748 158.103C120.513 156.982 120.701 155.975 121.278 155.265C121.818 154.599 122.689 154.232 123.729 154.232H238.254C240.942 154.232 243.8 156.614 244.371 159.331L259.623 232.082C259.857 233.201 259.668 234.209 259.094 234.919C258.543 235.595 257.697 235.952 256.641 235.952H142.116Z" fill="white"/>
<path d="M228.525 230.134L214.074 161.205C213.709 159.461 215.04 157.822 216.822 157.822H235.405C236.733 157.822 237.879 158.753 238.152 160.054L252.603 228.982C252.968 230.726 251.637 232.364 249.855 232.364H231.272C229.944 232.364 228.797 231.434 228.525 230.134Z" fill="#A5C5CC"/>
<path d="M153.064 162.966C153.163 163.439 153.239 163.801 153.239 163.801H130.288L129.661 160.812H152.612C152.612 160.812 152.773 161.582 152.932 162.34" fill="#A5C5CC"/>
<path d="M173.017 171.218C161.269 171.218 140.882 171.218 140.882 171.218L140.254 168.229C140.254 168.229 164.859 168.229 175.584 168.229" fill="#EBEBEB"/>
<path d="M142.638 176.908C142.623 176.838 142.609 176.768 142.595 176.7L142.638 176.908Z" fill="#EBEBEB"/>
<path d="M173.333 186.049C162.634 186.049 145.119 186.049 145.119 186.049L144.493 183.059C144.493 183.059 165.198 183.059 175.336 183.059" fill="#EBEBEB"/>
<path d="M151.532 196.901C151.664 197.531 151.78 198.082 151.78 198.082H137.262L136.635 195.092H151.153C151.153 195.092 151.212 195.375 151.294 195.766" fill="#A5C5CC"/>
<path d="M165.229 203.994C165.386 204.745 165.544 205.498 165.544 205.498H147.855L147.228 202.508H164.917C164.917 202.508 165.067 203.226 165.221 203.958" fill="#EBEBEB"/>
<path d="M187.166 204.05C187.319 204.781 187.469 205.498 187.469 205.498H169.781L169.153 202.508H186.843C186.843 202.508 186.985 203.186 187.134 203.896" fill="#EBEBEB"/>
<path d="M208.22 212.915C198.848 212.915 149.974 212.915 149.974 212.915L149.347 209.925H209.137L209.763 212.915C209.763 212.915 209.255 212.915 208.333 212.915" fill="#EBEBEB"/>
<path d="M195.276 220.33C185.872 220.33 152.093 220.33 152.093 220.33L151.467 217.342H197.053L197.68 220.33C197.68 220.33 197.246 220.33 196.463 220.33" fill="#EBEBEB"/>
<path d="M290.664 239.666H139.97C135.859 239.666 133.2 242.002 134.062 244.856H299.706C298.844 242.002 294.775 239.666 290.664 239.666Z" fill="#253138"/>
<path d="M90.4539 134.01L76.0029 65.0822C75.638 63.3382 76.9689 61.6992 78.7509 61.6992H195.783C197.111 61.6992 198.257 62.6302 198.53 63.9312L212.98 132.859C213.346 134.603 212.015 136.241 210.233 136.241H93.2019C91.8729 136.241 90.7259 135.311 90.4539 134.01Z" fill="#D1E2E6"/>
<path d="M103.21 43.4399C103.172 43.2599 103.132 43.0679 103.093 42.8779L103.21 43.4399Z" fill="#F9A08D"/>
<path d="M449.951 217.34H431.763L433.882 244.858H447.831L449.951 217.34Z" fill="#F9A08D"/>
<path d="M449.951 217.34H431.764L433.882 244.858H447.832L449.951 217.34Z" fill="#F4EEB0"/>
<path d="M53.5149 198.229H79.6649L70.7379 244.857H44.5869L53.5149 198.229Z" fill="#253138"/>
<path d="M86.8223 185.728H49.8843L60.2223 244.857H97.1603L86.8223 185.728Z" fill="#F4EEB0"/>
<path d="M47.6987 185.728H49.8837L60.2207 244.857H58.0367L47.6987 185.728Z" fill="#F4EEB0"/>
<path d="M47.6987 185.728H49.8837L60.2207 244.857H58.0367L47.6987 185.728Z" fill="black"/>
<path d="M65.5318 238.538L57.4048 192.05H81.5108L89.6388 238.538H65.5318Z" fill="white"/>
<path d="M88.4942 238.538L80.3672 192.05H81.5112L89.6392 238.538H88.4942Z" fill="#F4EEB0"/>
<path d="M268.573 112.191C269.146 113.268 269.008 114.456 268.262 114.847C267.518 115.238 266.449 114.682 265.875 113.606C265.301 112.531 265.44 111.342 266.186 110.951C266.93 110.561 267.999 111.115 268.573 112.191Z" fill="#253138"/>
<path d="M269.13 114.588C269.13 114.588 269.857 122.204 268.588 126.726C271.585 127.449 274.614 124.823 274.614 124.823L269.13 114.588Z" fill="#FF5552"/>
<path d="M268.258 102.869C268.144 102.968 268 103.036 267.839 103.056C264.578 103.462 263.271 105.743 263.217 105.84C263.021 106.193 262.573 106.339 262.214 106.168C261.854 105.996 261.718 105.574 261.909 105.222C261.978 105.097 263.62 102.154 267.708 101.645C268.115 101.595 268.476 101.869 268.512 102.259C268.535 102.494 268.433 102.717 268.258 102.869Z" fill="#253138"/>
<path d="M310.596 108.793C315.583 123.383 320.971 134.611 327.302 140.754C327.302 140.754 327.816 152.465 307.256 159.515C284.647 167.266 292.914 152.547 292.914 152.547C304.324 145.513 302.857 136.235 294.02 133.292L310.596 108.793Z" fill="#FF8A7A"/>
<path d="M304.842 90.4095C311.022 104.061 315.372 111.719 311.922 122.198C306.733 137.961 286.249 140.969 275.887 129.544C266.56 119.258 258.021 98.6632 268.906 86.2311C279.632 73.9813 298.662 76.7593 304.842 90.4095Z" fill="#FF8A7A"/>
<path d="M277.687 113.263C275.426 116.484 273.702 118.918 273.702 118.918C273.702 118.918 268.452 107.672 270.125 102.225C267.608 97.89 263.072 104.864 260.973 96.2234C258.873 87.5835 266.326 77.6115 269.205 75.4542C269.641 76.0739 269.706 78.5721 269.706 78.5721C269.706 78.5721 281.006 67.7567 297.632 67.9756C296.531 69.1526 296.191 72.1677 296.191 72.1677C296.191 72.1677 313.372 73.7721 317.572 82.7513C315.087 81.7896 313.219 81.5964 313.219 81.5964C313.219 81.5964 318.313 87.0928 317.19 96.2072C316.065 105.322 315.732 115.323 316.037 119.241C316.34 123.157 305.377 131.475 298.267 123.925C291.157 116.374 277.687 113.263 277.687 113.263Z" fill="#253138"/>
<path d="M285.164 109.813C286.278 113.198 285.904 116.959 284.773 119.777C283.069 124.015 279.253 123.347 277.245 119.836C275.435 116.675 274.142 110.661 277.046 107.531C279.907 104.445 283.89 105.943 285.164 109.813Z" fill="#FF8A7A"/>
<path d="M331.456 139.12C331.052 133.573 330.536 127.255 327.113 127.095C323.347 126.918 301.534 136.665 296.872 143.539C292.21 150.412 301.311 157.14 301.311 157.14L331.456 139.12Z" fill="#358EED"/>
<path d="M285.091 221.511L266.249 220.89L266.584 236.672C266.584 236.672 283.024 234.979 283.748 230.658L285.091 221.511Z" fill="#FF8A7A"/>
<path d="M256.289 228.633L254.313 236.704L266.583 236.672L266.249 220.89L256.289 228.633Z" fill="#FF8A7A"/>
<path d="M360.724 155.918L360.331 159.966C360.203 161.269 360.021 162.552 359.856 163.839C359.525 166.409 359.12 168.964 358.679 171.518C357.826 176.63 356.719 181.714 355.456 186.831C354.129 191.93 352.668 197.071 350.745 202.236C349.768 204.828 348.751 207.418 347.525 210.059C346.31 212.699 344.99 215.35 343.271 218.063C342.88 218.729 342.4 219.423 341.938 220.106C341.484 220.785 341.011 221.468 340.459 222.169C339.915 222.867 339.437 223.539 338.792 224.252L337.868 225.3C337.568 225.641 337.261 225.986 336.819 226.4C333.534 229.635 330.165 231.585 327.006 232.997C320.688 235.773 314.954 236.833 309.396 237.457C306.628 237.785 303.898 237.913 301.209 237.973C298.522 238.048 295.864 237.988 293.23 237.839C290.598 237.72 287.986 237.464 285.39 237.161C282.76 236.837 280.281 236.438 277.521 235.883L277.975 221.08C287.071 219.272 296.595 217.416 304.754 214.696C306.801 214.038 308.744 213.277 310.509 212.483C312.278 211.717 313.875 210.864 315.073 210.016C316.264 209.167 317.039 208.348 317.134 208.004L317.553 207.353C317.72 207.142 317.899 206.772 318.08 206.479C318.264 206.193 318.448 205.84 318.633 205.47C318.819 205.109 319.012 204.773 319.192 204.353C320.677 201.205 322.126 197.249 323.285 193.114C324.444 188.947 325.545 184.591 326.424 180.114C327.385 175.66 328.148 171.092 328.929 166.515L330.006 159.628L330.975 152.924L360.724 155.918Z" fill="#358EED"/>
<path d="M360.724 155.918L360.331 159.966C360.203 161.269 360.021 162.552 359.856 163.839C359.525 166.409 359.12 168.964 358.679 171.518C357.826 176.63 356.719 181.714 355.456 186.831C354.129 191.93 352.668 197.071 350.745 202.236C349.768 204.828 348.751 207.418 347.525 210.059C346.31 212.699 344.99 215.35 343.271 218.063C342.88 218.729 342.4 219.423 341.938 220.106C341.484 220.785 341.011 221.468 340.459 222.169C339.915 222.867 339.437 223.539 338.792 224.252L337.868 225.3C337.568 225.641 337.261 225.986 336.819 226.4C333.534 229.635 330.165 231.585 327.006 232.997C320.688 235.773 314.954 236.833 309.396 237.457C306.628 237.785 303.898 237.913 301.209 237.973C298.522 238.048 295.864 237.988 293.23 237.839C290.598 237.72 287.986 237.464 285.39 237.161C282.76 236.837 280.281 236.438 277.521 235.883L277.975 221.08C287.071 219.272 296.595 217.416 304.754 214.696C306.801 214.038 308.744 213.277 310.509 212.483C312.278 211.717 313.875 210.864 315.073 210.016C316.264 209.167 317.039 208.348 317.134 208.004L317.553 207.353C317.72 207.142 317.899 206.772 318.08 206.479C318.264 206.193 318.448 205.84 318.633 205.47C318.819 205.109 319.012 204.773 319.192 204.353C320.677 201.205 322.126 197.249 323.285 193.114C324.444 188.947 325.545 184.591 326.424 180.114C327.385 175.66 328.148 171.092 328.929 166.515L330.006 159.628L330.975 152.924L360.724 155.918Z" fill="#358EED"/>
<path d="M278.766 178.087C283.328 197.046 289.221 228.83 290.569 270.386H373.526C373.986 260.131 372.252 202.433 363.903 160.645C360.728 144.756 345.143 134.478 329.334 138.028C329.202 138.058 329.069 138.088 328.937 138.118C318.59 140.477 303.718 144.276 294.971 147.602C294.852 147.647 294.734 147.691 294.615 147.737C282.461 152.406 275.72 165.429 278.766 178.087Z" fill="#358EED"/>
<path d="M283.657 201.272C284.874 205.062 285.937 212 286.085 217.264C292.872 210.178 295.025 188.472 295.025 188.472L283.657 201.272Z" fill="#358EED"/>
<path d="M211.097 220.42L192.108 216.784L190.684 231.878C190.684 231.878 200.35 235.931 208.717 228.92L211.097 220.42Z" fill="#FF8A7A"/>
<path d="M183.036 220.803L176.319 230.655L191.038 232.432L192.467 217.241L183.036 220.803Z" fill="#FF8A7A"/>
<path d="M309.785 174.466C308.328 176.723 307.043 178.707 305.604 180.754C304.192 182.779 302.774 184.796 301.298 186.769C298.372 190.737 295.336 194.629 292.159 198.452C285.803 206.098 279.018 213.506 271.149 220.475C267.234 223.98 262.968 227.328 258.04 230.456C257.448 230.852 256.764 231.228 256.127 231.611C255.464 231.994 254.919 232.351 253.957 232.806C253.086 233.249 252.215 233.641 251.346 233.978C250.469 234.345 249.613 234.64 248.741 234.911C245.26 235.973 241.895 236.5 238.676 236.745C232.218 237.158 226.276 236.467 220.616 235.29C217.791 234.64 215.033 233.947 212.338 233.03C210.988 232.595 209.653 232.118 208.328 231.591C206.964 231.076 205.768 230.522 204.246 229.853L207.366 216.035C216.471 215.796 226.328 215.305 233.222 213.114C234.94 212.605 236.431 211.96 237.538 211.258C238.093 210.917 238.603 210.603 238.958 210.26C239.076 210.15 239.531 209.825 239.891 209.563C240.264 209.281 240.633 209.046 241.015 208.728C244.044 206.373 247.123 203.498 250.151 200.417C256.183 194.21 261.957 187.221 267.539 180.049C270.332 176.461 273.068 172.795 275.788 169.117L279.822 163.574L283.713 158.129L309.785 174.466Z" fill="#358EED"/>
<path d="M287.127 466.607H271.617L263.821 430.689H279.331L287.127 466.607Z" fill="#FF8A7A"/>
<path d="M270.754 463.283H288.178C288.812 463.283 289.361 463.723 289.499 464.343L292.563 478.129C292.881 479.558 291.757 480.912 290.292 480.887C284.209 480.782 281.253 480.426 273.59 480.426C268.876 480.426 262.826 480.915 256.315 480.915C249.948 480.915 248.955 474.478 251.62 473.895C263.57 471.281 264.411 467.676 268.236 464.237C268.926 463.617 269.827 463.283 270.754 463.283Z" fill="#253138"/>
<path d="M279.335 430.701H263.818L268.144 450.589L283.361 449.215L279.335 430.701Z" fill="black"/>
<path d="M315.432 270.387C315.432 270.387 243.405 296.5 241.282 331.064C237.37 394.717 263.408 445.113 263.408 445.113L287.266 442.563C287.266 442.563 283.024 422.075 279.854 364.408C275.871 291.947 398.854 366.106 373.526 270.387H315.432Z" fill="#D38575"/>
<path d="M315.432 270.387C315.432 270.387 243.405 296.499 241.282 331.063C237.37 394.716 263.408 445.113 263.408 445.113L287.266 442.563C287.266 442.563 283.024 422.075 279.854 364.408C275.871 291.947 398.854 366.105 373.526 270.386L315.432 270.387Z" fill="#F9A08D"/>
<path d="M256.798 436.33C256.685 436.342 260.594 446.919 260.594 446.919L290.385 444.004L288.89 434.368L256.798 436.33Z" fill="#D38575"/>
<path d="M220.122 477.811H204.611L200.081 441.893H215.591L220.122 477.811Z" fill="#FF8A7A"/>
<path d="M204.488 472.72L221.425 472.698C222.06 472.698 222.61 473.137 222.748 473.755L225.83 487.537C226.15 488.966 225.067 490.322 223.603 490.298C217.493 490.203 208.663 489.857 200.984 489.867C192.005 489.88 190.283 490.373 179.753 490.388C173.386 490.397 171.61 483.961 174.274 483.375C186.404 480.704 190.277 480.414 200.754 473.935C201.892 473.231 203.149 472.722 204.488 472.72Z" fill="#253138"/>
<path d="M200.083 441.901L202.548 461.465L217.933 460.416L215.6 441.901H200.083Z" fill="black"/>
<path d="M290.569 270.388C290.569 270.388 172.541 280.856 173.815 340.13C175.14 401.784 198.171 443.368 198.171 443.368H221.216C221.216 443.368 216.849 411.385 217.623 350.686C217.856 332.501 254.598 326.493 290.484 324.371C321.482 322.539 350.498 304.87 362.54 276.247L365.005 270.388H290.569Z" fill="#F9A08D"/>
<path d="M290.568 270.388C290.568 270.388 172.54 280.856 173.814 340.13C175.139 401.784 198.171 443.368 198.171 443.368H221.216C221.216 443.368 216.848 411.385 217.622 350.686C217.855 332.501 254.598 326.493 290.484 324.371C321.482 322.539 350.498 304.87 362.54 276.247L365.005 270.388H290.568Z" fill="#F9A08D"/>
<path d="M192.781 437.17C192.676 437.178 196.731 447.824 196.731 447.824L224.548 445.837L222.927 436.192L192.781 437.17Z" fill="#D38575"/>
<path d="M321.541 203.766L306.57 261.473C302.752 276.192 300.814 291.425 300.814 306.731V333.556C300.814 340.328 305.807 345.819 311.965 345.819H388.735C394.894 345.819 399.886 340.328 399.886 333.556V306.731C399.886 291.425 401.822 276.192 405.641 261.473L418.866 210.495C420.897 202.662 415.55 194.869 408.144 194.869H332.264C327.284 194.869 322.907 198.499 321.541 203.766Z" fill="#3E4A4D"/>
<path d="M226.069 317.879L228.582 332.189C229.904 339.717 236.525 345.819 243.37 345.819H328.704C335.549 345.819 340.026 339.716 338.704 332.189L336.191 317.879C334.687 309.314 327.153 302.369 319.364 302.369H237.448C229.659 302.369 224.565 309.314 226.069 317.879Z" fill="#3E4A4D"/>
<path d="M336.918 360.189H292.217L287.853 345.818H341.283L336.918 360.189Z" fill="#A5C5CC"/>
<path d="M322.554 467.031H306.582V362.757L322.554 364.382V467.031Z" fill="#E4E4E4"/>
<path d="M318.658 467.033H314.842V363.597L318.658 363.986V467.033Z" fill="#A5C5CC"/>
<path d="M351.29 483.54H277.844C275.88 483.54 275.058 481.03 276.643 479.868L288.301 471.321C293.896 467.219 300.654 465.008 307.592 465.008H321.542C328.48 465.008 335.238 467.219 340.833 471.321L352.492 479.868C354.076 481.03 353.254 483.54 351.29 483.54Z" fill="#A5C5CC"/>
</svg>
